<svg width="1280" height="720" xmlns="http://www.w3.org/2000/svg" xmlns:xlink="http://www.w3.org/1999/xlink" overflow="hidden"><g><rect x="0" y="0" width="1280" height="720" fill="#FFFFFF"/><path d="M748.5 578.5 748.5 638.713" stroke="#000000" stroke-width="0.666667" stroke-miterlimit="8" fill="none" fill-rule="evenodd"/><path d="M0.5-6.03803e-07 0.500104 85.948-0.499896 85.948-0.5 6.03803e-07ZM5.09865 78.2 0.00010499 86.9404-5.09846 78.2C-5.2376 77.9615-5.15703 77.6553-4.91851 77.5162-4.67998 77.377-4.37382 77.4576-4.23468 77.6961L0.431993 85.6961-0.431786 85.6961 4.23487 77.6961C4.37401 77.4576 4.68017 77.377 4.9187 77.5162 5.15722 77.6553 5.23779 77.9615 5.09865 78.2Z" transform="matrix(1 0 0 -1 725.5 652.438)"/><path d="M715.5 644 840.282 644 840.282 645 715.5 645ZM832.533 639.402 841.274 644.5 832.533 649.599C832.295 649.738 831.989 649.657 831.849 649.419 831.71 649.18 831.791 648.874 832.029 648.735L840.029 644.068 840.029 644.932 832.029 640.265C831.791 640.126 831.71 639.82 831.849 639.582 831.989 639.343 832.295 639.262 832.533 639.402Z"/><rect x="741.5" y="591.5" width="13" height="30" stroke="#000000" stroke-width="0.666667" stroke-miterlimit="8" fill="#9ACFF1"/><path d="M0 0 10.1667 0.000104987" stroke="#000000" stroke-width="0.666667" stroke-miterlimit="8" fill="none" fill-rule="evenodd" transform="matrix(-1 0 0 1 752.667 578.5)"/><path d="M0 0 10.1667 0.000104987" stroke="#000000" stroke-width="0.666667" stroke-miterlimit="8" fill="none" fill-rule="evenodd" transform="matrix(-1 0 0 1 752.667 638.5)"/><path d="M0 0 12.8828 0.000104987" stroke="#000000" stroke-width="0.666667" stroke-miterlimit="8" fill="none" fill-rule="evenodd" transform="matrix(-1 0 0 1 754.383 610.5)"/><path d="M781.5 571.5 781.5 631.713" stroke="#000000" stroke-width="0.666667" stroke-miterlimit="8" fill="none" fill-rule="evenodd"/><rect x="774.5" y="576.5" width="14" height="39" stroke="#000000" stroke-width="0.666667" stroke-miterlimit="8" fill="#9ACFF1"/><path d="M0 0 10.1667 0.000104987" stroke="#000000" stroke-width="0.666667" stroke-miterlimit="8" fill="none" fill-rule="evenodd" transform="matrix(-1 0 0 1 786.667 571.5)"/><path d="M0 0 10.1667 0.000104987" stroke="#000000" stroke-width="0.666667" stroke-miterlimit="8" fill="none" fill-rule="evenodd" transform="matrix(-1 0 0 1 786.667 631.5)"/><path d="M0 0 12.8828 0.000104987" stroke="#000000" stroke-width="0.666667" stroke-miterlimit="8" fill="none" fill-rule="evenodd" transform="matrix(-1 0 0 1 787.383 586.5)"/><text font-family="Arial,Arial_MSFontService,sans-serif" font-weight="400" font-size="12" transform="translate(779.818 563)">.</text><path d="M814.5 590.5 814.5 637.797" stroke="#000000" stroke-width="0.666667" stroke-miterlimit="8" fill="none" fill-rule="evenodd"/><rect x="808.5" y="593.5" width="13" height="28" stroke="#000000" stroke-width="0.666667" stroke-miterlimit="8" fill="#9ACFF1"/><path d="M0 0 10.1667 0.000104987" stroke="#000000" stroke-width="0.666667" stroke-miterlimit="8" fill="none" fill-rule="evenodd" transform="matrix(-1 0 0 1 819.667 590.5)"/><path d="M0 0 10.1667 0.000104987" stroke="#000000" stroke-width="0.666667" stroke-miterlimit="8" fill="none" fill-rule="evenodd" transform="matrix(-1 0 0 1 819.667 637.5)"/><path d="M0 0 12.8828 0.000104987" stroke="#000000" stroke-width="0.666667" stroke-miterlimit="8" fill="none" fill-rule="evenodd" transform="matrix(-1 0 0 1 821.383 607.5)"/><text font-family="Arial,Arial_MSFontService,sans-serif" font-weight="400" font-size="11" transform="translate(737.384 658)">Algo1</text><text font-family="Arial,Arial_MSFontService,sans-serif" font-weight="400" font-size="11" transform="translate(768.455 658)">Algo2</text><text font-family="Arial,Arial_MSFontService,sans-serif" font-weight="400" font-size="11" transform="translate(802.227 657)">Algo3</text><path d="M481 178.804C481 167.314 490.314 158 501.804 158L1040.2 158C1051.69 158 1061 167.314 1061 178.804L1061 403.196C1061 414.686 1051.69 424 1040.2 424L501.804 424C490.314 424 481 414.686 481 403.196Z" stroke="#BFBFBF" stroke-width="4" stroke-miterlimit="8" fill="none" fill-rule="evenodd"/><text font-family="Arial,Arial_MSFontService,sans-serif" font-weight="400" font-size="16" transform="translate(739.027 297)">SimPlEC</text><path d="M1111 182.927C1111 180.206 1113.21 178 1115.93 178L1221.07 178C1223.79 178 1226 180.206 1226 182.927L1226 236.073C1226 238.794 1223.79 241 1221.07 241L1115.93 241C1113.21 241 1111 238.794 1111 236.073Z" stroke="#EE7551" stroke-width="4" stroke-miterlimit="8" fill="none" fill-rule="evenodd"/><text font-family="Arial,Arial_MSFontService,sans-serif" font-weight="400" font-size="16" transform="translate(1125.86 206)">C</text><text font-family="Arial,Arial_MSFontService,sans-serif" font-weight="400" font-size="16" transform="translate(1137.36 206)">entral MP</text><text font-family="Arial,Arial_MSFontService,sans-serif" font-weight="400" font-size="16" transform="translate(1205.69 206)">-</text><text font-family="Arial,Arial_MSFontService,sans-serif" font-weight="400" font-size="16" transform="translate(1133.94 225)">Controller</text><path d="M1111 264.927C1111 262.206 1113.21 260 1115.93 260L1221.07 260C1223.79 260 1226 262.206 1226 264.927L1226 318.073C1226 320.794 1223.79 323 1221.07 323L1115.93 323C1113.21 323 1111 320.794 1111 318.073Z" stroke="#EE7551" stroke-width="4" stroke-miterlimit="8" fill="none" fill-rule="evenodd"/><text font-family="Arial,Arial_MSFontService,sans-serif" font-weight="400" font-size="16" transform="translate(1134.36 279)">Decentral</text><text font-family="Arial,Arial_MSFontService,sans-serif" font-weight="400" font-size="16" transform="translate(1153.78 298)">MP</text><text font-family="Arial,Arial_MSFontService,sans-serif" font-weight="400" font-size="16" transform="translate(1177.78 298)">-</text><text font-family="Arial,Arial_MSFontService,sans-serif" font-weight="400" font-size="16" transform="translate(1133.94 317)">Controller</text><path d="M1111 346.927C1111 344.206 1113.21 342 1115.93 342L1221.07 342C1223.79 342 1226 344.206 1226 346.927L1226 400.073C1226 402.794 1223.79 405 1221.07 405L1115.93 405C1113.21 405 1111 402.794 1111 400.073Z" stroke="#EE7551" stroke-width="4" stroke-miterlimit="8" fill="none" fill-rule="evenodd"/><text font-family="Arial,Arial_MSFontService,sans-serif" font-weight="400" font-size="16" transform="translate(1160.44 380)">…</text><path d="M814.25 435 814.25 443.903 858 443.903 770.5 458 683 443.903 726.75 443.903 726.75 435Z" fill="#BFBFBF" fill-rule="evenodd"/><path d="M481 467.285C481 465.471 482.471 464 484.285 464L568.715 464C570.529 464 572 465.471 572 467.285L572 502.715C572 504.529 570.529 506 568.715 506L484.285 506C482.471 506 481 504.529 481 502.715Z" stroke="#FFDC5F" stroke-width="4" stroke-miterlimit="8" fill="none" fill-rule="evenodd"/><text font-family="Arial,Arial_MSFontService,sans-serif" font-weight="400" font-size="16" transform="translate(493.8 491)">Output_1</text><path d="M482 553.731C482 547.252 487.252 542 493.731 542L636.269 542C642.748 542 648 547.252 648 553.731L648 680.269C648 686.748 642.748 692 636.269 692L493.731 692C487.252 692 482 686.748 482 680.269Z" stroke="#C0A1CC" stroke-width="4" stroke-miterlimit="8" fill="none" fill-rule="evenodd"/><text font-family="Arial,Arial_MSFontService,sans-serif" font-weight="400" font-size="16" transform="translate(522.565 681)">Time Series</text><path d="M690 553.731C690 547.252 695.252 542 701.731 542L844.269 542C850.748 542 856 547.252 856 553.731L856 680.269C856 686.748 850.748 692 844.269 692L701.731 692C695.252 692 690 686.748 690 680.269Z" stroke="#C0A1CC" stroke-width="4" stroke-miterlimit="8" fill="none" fill-rule="evenodd"/><text font-family="Arial,Arial_MSFontService,sans-serif" font-weight="400" font-size="16" transform="translate(730.217 681)">Comparison</text><path d="M894 553.731C894 547.252 899.252 542 905.731 542L1049.27 542C1055.75 542 1061 547.252 1061 553.731L1061 680.269C1061 686.748 1055.75 692 1049.27 692L905.731 692C899.252 692 894 686.748 894 680.269Z" stroke="#C0A1CC" stroke-width="4" stroke-miterlimit="8" fill="none" fill-rule="evenodd"/><text font-family="Arial,Arial_MSFontService,sans-serif" font-weight="400" font-size="16" transform="translate(969.199 681)">…</text><path d="M813.5 513 813.5 521.903 857 521.903 770 536 683 521.903 726.5 521.903 726.5 513Z" fill="#BFBFBF" fill-rule="evenodd"/><path d="M341 163.285C341 161.471 342.471 160 344.285 160L426.715 160C428.529 160 430 161.471 430 163.285L430 198.715C430 200.529 428.529 202 426.715 202L344.285 202C342.471 202 341 200.529 341 198.715Z" stroke="#EE7551" stroke-width="4" stroke-miterlimit="8" fill="none" fill-rule="evenodd"/><text font-family="Arial,Arial_MSFontService,sans-serif" font-weight="400" font-size="16" transform="translate(372.653 178)">PV</text><text font-family="Arial,Arial_MSFontService,sans-serif" font-weight="400" font-size="16" transform="translate(393.106 178)">-</text><text font-family="Arial,Arial_MSFontService,sans-serif" font-weight="400" font-size="16" transform="translate(363.879 197)">m</text><text font-family="Arial,Arial_MSFontService,sans-serif" font-weight="400" font-size="16" transform="translate(377.213 197)">odel</text><path d="M342 268.363C342 266.506 343.506 265 345.363 265L426.637 265C428.494 265 430 266.506 430 268.363L430 304.637C430 306.494 428.494 308 426.637 308L345.363 308C343.506 308 342 306.494 342 304.637Z" stroke="#EE7551" stroke-width="4" stroke-miterlimit="8" fill="none" fill-rule="evenodd"/><text font-family="Arial,Arial_MSFontService,sans-serif" font-weight="400" font-size="16" transform="translate(355.249 283)">Building</text><text font-family="Arial,Arial_MSFontService,sans-serif" font-weight="400" font-size="16" transform="translate(411.749 283)">-</text><text font-family="Arial,Arial_MSFontService,sans-serif" font-weight="400" font-size="16" transform="translate(364.495 302)">model</text><path d="M342 320.363C342 318.506 343.506 317 345.363 317L427.637 317C429.494 317 431 318.506 431 320.363L431 356.637C431 358.494 429.494 360 427.637 360L345.363 360C343.506 360 342 358.494 342 356.637Z" stroke="#EE7551" stroke-width="4" stroke-miterlimit="8" fill="none" fill-rule="evenodd"/><text font-family="Arial,Arial_MSFontService,sans-serif" font-weight="400" font-size="16" transform="translate(367.82 336)">BES</text><text font-family="Arial,Arial_MSFontService,sans-serif" font-weight="400" font-size="16" transform="translate(399.82 336)">-</text><text font-family="Arial,Arial_MSFontService,sans-serif" font-weight="400" font-size="16" transform="translate(364.82 355)">model</text><path d="M342 373.363C342 371.506 343.506 370 345.363 370L426.637 370C428.494 370 430 371.506 430 373.363L430 409.637C430 411.494 428.494 413 426.637 413L345.363 413C343.506 413 342 411.494 342 409.637Z" stroke="#EE7551" stroke-width="4" stroke-miterlimit="8" fill="none" fill-rule="evenodd"/><text font-family="Arial,Arial_MSFontService,sans-serif" font-weight="400" font-size="16" transform="translate(378.165 398)">…</text><path d="M341 215.363C341 213.506 342.506 212 344.363 212L426.637 212C428.494 212 430 213.506 430 215.363L430 251.637C430 253.494 428.494 255 426.637 255L344.363 255C342.506 255 341 253.494 341 251.637Z" stroke="#EE7551" stroke-width="4" stroke-miterlimit="8" fill="none" fill-rule="evenodd"/><text font-family="Arial,Arial_MSFontService,sans-serif" font-weight="400" font-size="16" transform="translate(372.653 230)">E</text><text font-family="Arial,Arial_MSFontService,sans-serif" font-weight="400" font-size="16" transform="translate(383.319 230)">V</text><text font-family="Arial,Arial_MSFontService,sans-serif" font-weight="400" font-size="16" transform="translate(393.106 230)">-</text><text font-family="Arial,Arial_MSFontService,sans-serif" font-weight="400" font-size="16" transform="translate(363.879 249)">model</text><path d="M481 28.7707C481 26.1359 483.136 24 485.771 24L652.229 24C654.864 24 657 26.1359 657 28.7707L657 80.2293C657 82.8641 654.864 85 652.229 85L485.771 85C483.136 85 481 82.8641 481 80.2293Z" stroke="#0070C0" stroke-width="4" stroke-miterlimit="8" fill="none" fill-rule="evenodd"/><text font-family="Arial,Arial_MSFontService,sans-serif" font-weight="400" font-size="16" transform="translate(503.537 61)">Scenario small EC</text><path d="M683 28.7707C683 26.1359 685.136 24 687.771 24L854.229 24C856.864 24 859 26.1359 859 28.7707L859 80.2293C859 82.8641 856.864 85 854.229 85L687.771 85C685.136 85 683 82.8641 683 80.2293Z" stroke="#0070C0" stroke-width="4" stroke-miterlimit="8" fill="none" fill-rule="evenodd"/><text font-family="Arial,Arial_MSFontService,sans-serif" font-weight="400" font-size="16" transform="translate(705.861 61)">Scenario large</text><text font-family="Arial,Arial_MSFontService,sans-serif" font-weight="400" font-size="16" transform="translate(808.527 61)">-</text><text font-family="Arial,Arial_MSFontService,sans-serif" font-weight="400" font-size="16" transform="translate(813.861 61)">EC</text><path d="M885 28.7707C885 26.1359 887.136 24 889.771 24L1056.23 24C1058.86 24 1061 26.1359 1061 28.7707L1061 80.2293C1061 82.8641 1058.86 85 1056.23 85L889.771 85C887.136 85 885 82.8641 885 80.2293Z" stroke="#0070C0" stroke-width="4" stroke-miterlimit="8" fill="none" fill-rule="evenodd"/><text font-family="Arial,Arial_MSFontService,sans-serif" font-weight="400" font-size="16" transform="translate(964.768 61)">…</text><path d="M683 96.1899C683 94.9804 683.98 94 685.19 94L761.81 94C763.02 94 764 94.9804 764 96.1899L764 119.81C764 121.02 763.02 122 761.81 122L685.19 122C683.98 122 683 121.02 683 119.81Z" stroke="#0070C0" stroke-width="4" stroke-miterlimit="8" fill="none" fill-rule="evenodd"/><text font-family="Arial,Arial_MSFontService,sans-serif" font-weight="400" font-size="16" transform="translate(698.925 114)">S</text><text font-family="Arial,Arial_MSFontService,sans-serif" font-weight="400" font-size="16" transform="translate(709.592 114)">c</text><text font-family="Arial,Arial_MSFontService,sans-serif" font-weight="400" font-size="16" transform="translate(717.592 114)">en</text><text font-family="Arial,Arial_MSFontService,sans-serif" font-weight="400" font-size="16" transform="translate(739.758 114)">1</text><path d="M783 96.1899C783 94.9805 783.98 94 785.19 94L856.81 94C858.02 94 859 94.9805 859 96.1899L859 119.81C859 121.02 858.02 122 856.81 122L785.19 122C783.98 122 783 121.02 783 119.81Z" stroke="#0070C0" stroke-width="4" stroke-miterlimit="8" fill="none" fill-rule="evenodd"/><text font-family="Arial,Arial_MSFontService,sans-serif" font-weight="400" font-size="16" transform="translate(796.383 114)">S</text><text font-family="Arial,Arial_MSFontService,sans-serif" font-weight="400" font-size="16" transform="translate(807.05 114)">c</text><text font-family="Arial,Arial_MSFontService,sans-serif" font-weight="400" font-size="16" transform="translate(815.05 114)">en</text><text font-family="Arial,Arial_MSFontService,sans-serif" font-weight="400" font-size="16" transform="translate(837.217 114)">n</text><path d="M885 95.1899C885 93.9804 885.98 93 887.19 93L963.81 93C965.02 93 966 93.9804 966 95.1899L966 118.81C966 120.02 965.02 121 963.81 121L887.19 121C885.98 121 885 120.02 885 118.81Z" stroke="#0070C0" stroke-width="4" stroke-miterlimit="8" fill="none" fill-rule="evenodd"/><text font-family="Arial,Arial_MSFontService,sans-serif" font-weight="400" font-size="16" transform="translate(900.749 114)">S</text><text font-family="Arial,Arial_MSFontService,sans-serif" font-weight="400" font-size="16" transform="translate(911.416 114)">c</text><text font-family="Arial,Arial_MSFontService,sans-serif" font-weight="400" font-size="16" transform="translate(919.416 114)">en</text><text font-family="Arial,Arial_MSFontService,sans-serif" font-weight="400" font-size="16" transform="translate(941.583 114)">1</text><path d="M985 95.1899C985 93.9805 985.98 93 987.19 93L1058.81 93C1060.02 93 1061 93.9805 1061 95.1899L1061 118.81C1061 120.02 1060.02 121 1058.81 121L987.19 121C985.98 121 985 120.02 985 118.81Z" stroke="#0070C0" stroke-width="4" stroke-miterlimit="8" fill="none" fill-rule="evenodd"/><text font-family="Arial,Arial_MSFontService,sans-serif" font-weight="400" font-size="16" transform="translate(998.208 114)">S</text><text font-family="Arial,Arial_MSFontService,sans-serif" font-weight="400" font-size="16" transform="translate(1008.87 114)">c</text><text font-family="Arial,Arial_MSFontService,sans-serif" font-weight="400" font-size="16" transform="translate(1016.87 114)">en</text><text font-family="Arial,Arial_MSFontService,sans-serif" font-weight="400" font-size="16" transform="translate(1039.04 114)">n</text><path d="M481 98.1899C481 96.9804 481.98 96 483.19 96L559.81 96C561.02 96 562 96.9804 562 98.1899L562 121.81C562 123.02 561.02 124 559.81 124L483.19 124C481.98 124 481 123.02 481 121.81Z" stroke="#0070C0" stroke-width="4" stroke-miterlimit="8" fill="none" fill-rule="evenodd"/><text font-family="Arial,Arial_MSFontService,sans-serif" font-weight="400" font-size="16" transform="translate(496.549 116)">S</text><text font-family="Arial,Arial_MSFontService,sans-serif" font-weight="400" font-size="16" transform="translate(507.215 116)">c</text><text font-family="Arial,Arial_MSFontService,sans-serif" font-weight="400" font-size="16" transform="translate(515.215 116)">en</text><text font-family="Arial,Arial_MSFontService,sans-serif" font-weight="400" font-size="16" transform="translate(537.382 116)">1</text><path d="M581 98.1899C581 96.9805 581.98 96 583.19 96L654.81 96C656.02 96 657 96.9805 657 98.1899L657 121.81C657 123.02 656.02 124 654.81 124L583.19 124C581.98 124 581 123.02 581 121.81Z" stroke="#0070C0" stroke-width="4" stroke-miterlimit="8" fill="none" fill-rule="evenodd"/><text font-family="Arial,Arial_MSFontService,sans-serif" font-weight="400" font-size="16" transform="translate(594.007 116)">S</text><text font-family="Arial,Arial_MSFontService,sans-serif" font-weight="400" font-size="16" transform="translate(604.674 116)">c</text><text font-family="Arial,Arial_MSFontService,sans-serif" font-weight="400" font-size="16" transform="translate(612.674 116)">en</text><text font-family="Arial,Arial_MSFontService,sans-serif" font-weight="400" font-size="16" transform="translate(634.84 116)">n</text><path d="M814.25 126 814.25 134.903 858 134.903 770.5 149 683 134.903 726.75 134.903 726.75 126Z" fill="#BFBFBF" fill-rule="evenodd"/><path d="M193 184.614C193 182.066 195.066 180 197.614 180L274.386 180C276.934 180 279 182.066 279 184.614L279 234.386C279 236.934 276.934 239 274.386 239L197.614 239C195.066 239 193 236.934 193 234.386Z" stroke="#9ACFF1" stroke-width="4" stroke-miterlimit="8" fill="none" fill-rule="evenodd"/><text font-family="Arial,Arial_MSFontService,sans-serif" font-weight="400" font-size="16" transform="translate(205.944 206)">Weather</text><text font-family="Arial,Arial_MSFontService,sans-serif" font-weight="400" font-size="16" transform="translate(220.464 225)">data</text><path d="M193 255.614C193 253.066 195.066 251 197.614 251L274.386 251C276.934 251 279 253.066 279 255.614L279 305.386C279 307.934 276.934 310 274.386 310L197.614 310C195.066 310 193 307.934 193 305.386Z" stroke="#9ACFF1" stroke-width="4" stroke-miterlimit="8" fill="none" fill-rule="evenodd"/><text font-family="Arial,Arial_MSFontService,sans-serif" font-weight="400" font-size="16" transform="translate(214.361 277)">DHW</text><text font-family="Arial,Arial_MSFontService,sans-serif" font-weight="400" font-size="16" transform="translate(252.241 277)">-</text><text font-family="Arial,Arial_MSFontService,sans-serif" font-weight="400" font-size="16" transform="translate(220.468 296)">data</text><path d="M193 328.614C193 326.066 195.066 324 197.614 324L274.386 324C276.934 324 279 326.066 279 328.614L279 378.386C279 380.934 276.934 383 274.386 383L197.614 383C195.066 383 193 380.934 193 378.386Z" stroke="#9ACFF1" stroke-width="4" stroke-miterlimit="8" fill="none" fill-rule="evenodd"/><text font-family="Arial,Arial_MSFontService,sans-serif" font-weight="400" font-size="16" transform="translate(227.968 360)">…</text><path d="M0.5-6.03803e-07 0.500104 85.948-0.499896 85.948-0.5 6.03803e-07ZM5.09865 78.2 0.00010499 86.9404-5.09846 78.2C-5.2376 77.9615-5.15703 77.6553-4.91851 77.5162-4.67998 77.377-4.37382 77.4576-4.23468 77.6961L0.431993 85.6961-0.431786 85.6961 4.23487 77.6961C4.37401 77.4576 4.68017 77.377 4.9187 77.5162 5.15722 77.6553 5.23779 77.9615 5.09865 78.2Z" transform="matrix(1 0 0 -1 513.5 652.438)"/><path d="M502.5 644 627.282 644 627.282 645 502.5 645ZM619.533 639.402 628.274 644.5 619.533 649.599C619.295 649.738 618.989 649.657 618.849 649.419 618.71 649.18 618.791 648.874 619.029 648.735L627.029 644.068 627.029 644.932 619.029 640.265C618.791 640.126 618.71 639.82 618.849 639.582 618.989 639.343 619.295 639.262 619.533 639.402Z"/><text font-family="Arial,Arial_MSFontService,sans-serif" font-weight="400" font-size="11" transform="translate(524.888 658)">20:00</text><text font-family="Arial,Arial_MSFontService,sans-serif" font-weight="400" font-size="11" transform="translate(555.959 658)">21:00</text><text font-family="Arial,Arial_MSFontService,sans-serif" font-weight="400" font-size="11" transform="translate(589.732 657)">22:00</text><path d="M513.5 624.669C517.674 624.738 521.849 624.807 524.667 624.01 527.485 623.213 528.203 620.356 530.41 619.889 532.617 619.422 535.169 622.361 537.908 621.208 540.646 620.054 544.342 614.449 546.841 612.966 549.341 611.482 551.255 613.378 552.903 612.307 554.552 611.235 555.137 606.894 556.732 606.537 558.327 606.18 560.454 608.46 562.475 610.164 564.496 611.867 566.304 615.933 568.856 616.757 571.409 617.581 575.716 614.34 577.79 615.109 579.863 615.878 579.677 620.686 581.299 621.372 582.921 622.059 585.208 618.625 587.521 619.23 589.834 619.834 592.971 624.669 595.178 624.999 597.385 625.328 598.661 620.795 600.762 621.208 602.862 621.62 605.6 627.059 607.781 627.471 609.961 627.883 612.141 623.735 613.843 623.68 615.544 623.625 616.714 626.922 617.99 627.142 619.267 627.361 620.756 624.916 621.5 624.999" stroke="#9ACFF1" stroke-width="1.33333" stroke-miterlimit="8" fill="none" fill-rule="evenodd"/><path d="M515.5 597.5C518.079 597.542 520.657 597.584 522.413 598.005 524.169 598.426 524.8 599.886 526.034 600.026 527.269 600.167 528.531 597.949 529.82 598.847 531.109 599.746 532.097 603.956 533.77 605.416 535.444 606.876 538.434 606.202 539.86 607.605 541.287 609.009 540.491 612.406 542.329 613.837 544.167 615.269 549.023 614.427 550.888 616.195 552.754 617.964 551.849 623.915 553.522 624.448 555.195 624.981 558.021 621.304 560.929 619.395 563.837 617.486 568.418 614.764 570.969 612.995 573.52 611.227 574.865 609.009 576.236 608.784 577.608 608.56 577.196 611.76 579.199 611.648 581.201 611.535 585.838 608.139 588.252 608.111 590.666 608.083 591.544 611.872 593.683 611.479 595.823 611.086 598.457 606.09 601.09 605.753 603.724 605.416 607.4 609.149 609.485 609.458 611.569 609.767 611.597 607.998 613.599 607.605 615.602 607.213 619.854 607.241 621.5 607.1" stroke="#ED6E4C" stroke-width="1.33333" stroke-miterlimit="8" fill="none" fill-rule="evenodd"/><text font-family="Arial,Arial_MSFontService,sans-serif" font-weight="400" font-size="11" transform="translate(490.428 584)">Unit</text><path d="M906.993 553.502 939.74 553.502 939.74 573.048 906.993 573.048Z" fill-rule="evenodd"/><path d="M939.74 553.502 962.639 553.502 962.639 573.048 939.74 573.048Z" fill-rule="evenodd"/><path d="M962.639 553.502 993.005 553.502 993.005 573.048 962.639 573.048Z" fill-rule="evenodd"/><path d="M993.005 553.502 1025.54 553.502 1025.54 573.048 993.005 573.048Z" fill-rule="evenodd"/><path d="M1025.54 553.502 1047.41 553.502 1047.41 573.048 1025.54 573.048Z" fill-rule="evenodd"/><path d="M906.993 573.048 939.74 573.048 939.74 592.594 906.993 592.594Z" fill="#E7E7E7" fill-rule="evenodd"/><path d="M939.74 573.048 962.639 573.048 962.639 592.594 939.74 592.594Z" fill="#E7E7E7" fill-rule="evenodd"/><path d="M962.639 573.048 993.005 573.048 993.005 592.594 962.639 592.594Z" fill="#E7E7E7" fill-rule="evenodd"/><path d="M993.005 573.048 1025.54 573.048 1025.54 592.594 993.005 592.594Z" fill="#E7E7E7" fill-rule="evenodd"/><path d="M1025.54 573.048 1047.41 573.048 1047.41 592.594 1025.54 592.594Z" fill="#E7E7E7" fill-rule="evenodd"/><path d="M906.993 592.594 939.74 592.594 939.74 612.14 906.993 612.14Z" fill="#FFFFFF" fill-rule="evenodd"/><path d="M939.74 592.594 962.639 592.594 962.639 612.14 939.74 612.14Z" fill="#FFFFFF" fill-rule="evenodd"/><path d="M962.639 592.594 993.005 592.594 993.005 612.14 962.639 612.14Z" fill="#FFFFFF" fill-rule="evenodd"/><path d="M993.005 592.594 1025.54 592.594 1025.54 612.14 993.005 612.14Z" fill="#FFFFFF" fill-rule="evenodd"/><path d="M1025.54 592.594 1047.41 592.594 1047.41 612.14 1025.54 612.14Z" fill="#FFFFFF" fill-rule="evenodd"/><path d="M906.993 612.14 939.74 612.14 939.74 631.687 906.993 631.687Z" fill="#E7E7E7" fill-rule="evenodd"/><path d="M939.74 612.14 962.639 612.14 962.639 631.687 939.74 631.687Z" fill="#E7E7E7" fill-rule="evenodd"/><path d="M962.639 612.14 993.005 612.14 993.005 631.687 962.639 631.687Z" fill="#E7E7E7" fill-rule="evenodd"/><path d="M993.005 612.14 1025.54 612.14 1025.54 631.687 993.005 631.687Z" fill="#E7E7E7" fill-rule="evenodd"/><path d="M1025.54 612.14 1047.41 612.14 1047.41 631.687 1025.54 631.687Z" fill="#E7E7E7" fill-rule="evenodd"/><path d="M906.993 631.687 939.74 631.687 939.74 651.233 906.993 651.233Z" fill="#FFFFFF" fill-rule="evenodd"/><path d="M939.74 631.687 962.639 631.687 962.639 651.233 939.74 651.233Z" fill="#FFFFFF" fill-rule="evenodd"/><path d="M962.639 631.687 993.005 631.687 993.005 651.233 962.639 651.233Z" fill="#FFFFFF" fill-rule="evenodd"/><path d="M993.005 631.687 1025.54 631.687 1025.54 651.233 993.005 651.233Z" fill="#FFFFFF" fill-rule="evenodd"/><path d="M1025.54 631.687 1047.41 631.687 1047.41 651.233 1025.54 651.233Z" fill="#FFFFFF" fill-rule="evenodd"/><path d="M906.326 573.048 1048.07 573.048" stroke="#000000" stroke-width="1.33333" stroke-linejoin="round" stroke-miterlimit="10" fill="none" fill-rule="evenodd"/><path d="M906.326 592.594 1048.07 592.594" stroke="#000000" stroke-width="1.33333" stroke-linejoin="round" stroke-miterlimit="10" fill="none" fill-rule="evenodd"/><path d="M906.326 612.14 1048.07 612.14" stroke="#000000" stroke-width="1.33333" stroke-linejoin="round" stroke-miterlimit="10" fill="none" fill-rule="evenodd"/><path d="M906.326 631.687 1048.07 631.687" stroke="#000000" stroke-width="1.33333" stroke-linejoin="round" stroke-miterlimit="10" fill="none" fill-rule="evenodd"/><path d="M906.993 552.835 906.993 651.9" stroke="#000000" stroke-width="1.33333" stroke-linejoin="round" stroke-miterlimit="10" fill="none" fill-rule="evenodd"/><path d="M1047.41 552.835 1047.41 651.9" stroke="#000000" stroke-width="1.33333" stroke-linejoin="round" stroke-miterlimit="10" fill="none" fill-rule="evenodd"/><path d="M906.326 553.502 1048.07 553.502" stroke="#000000" stroke-width="1.33333" stroke-linejoin="round" stroke-miterlimit="10" fill="none" fill-rule="evenodd"/><path d="M906.326 651.233 1048.07 651.233" stroke="#000000" stroke-width="1.33333" stroke-linejoin="round" stroke-miterlimit="10" fill="none" fill-rule="evenodd"/><text fill="#FFFFFF" font-family="Arial,Arial_MSFontService,sans-serif" font-weight="700" font-size="8" transform="translate(1033.56 566)">B</text><text fill="#FFFFFF" font-family="Arial,Arial_MSFontService,sans-serif" font-weight="700" font-size="8" transform="translate(1006.36 566)">A</text><text fill="#FFFFFF" font-family="Arial,Arial_MSFontService,sans-serif" font-weight="700" font-size="8" transform="translate(975.405 566)">Z</text><text fill="#FFFFFF" font-family="Arial,Arial_MSFontService,sans-serif" font-weight="700" font-size="8" transform="translate(948.522 566)">Y</text><text fill="#FFFFFF" font-family="Arial,Arial_MSFontService,sans-serif" font-weight="700" font-size="8" transform="translate(920.7 566)">X</text><text font-family="Arial,Arial_MSFontService,sans-serif" font-weight="400" font-size="8" transform="translate(1034.22 586)">0</text><text font-family="Arial,Arial_MSFontService,sans-serif" font-weight="400" font-size="8" transform="translate(1003.69 586)">5.6</text><text font-family="Arial,Arial_MSFontService,sans-serif" font-weight="400" font-size="8" transform="translate(973.322 586)">33</text><text font-family="Arial,Arial_MSFontService,sans-serif" font-weight="400" font-size="8" transform="translate(948.939 586)">6</text><text font-family="Arial,Arial_MSFontService,sans-serif" font-weight="400" font-size="8" transform="translate(917.783 586)">2.2</text><text font-family="Arial,Arial_MSFontService,sans-serif" font-weight="400" font-size="8" transform="translate(1034.22 605)">0</text><text font-family="Arial,Arial_MSFontService,sans-serif" font-weight="400" font-size="8" transform="translate(1003.69 605)">6.5</text><text font-family="Arial,Arial_MSFontService,sans-serif" font-weight="400" font-size="8" transform="translate(973.322 605)">43</text><text font-family="Arial,Arial_MSFontService,sans-serif" font-weight="400" font-size="8" transform="translate(948.939 605)">6</text><text font-family="Arial,Arial_MSFontService,sans-serif" font-weight="400" font-size="8" transform="translate(917.783 605)">5.3</text><text font-family="Arial,Arial_MSFontService,sans-serif" font-weight="400" font-size="8" transform="translate(1034.22 625)">0</text><text font-family="Arial,Arial_MSFontService,sans-serif" font-weight="400" font-size="8" transform="translate(1003.69 625)">4.3</text><text font-family="Arial,Arial_MSFontService,sans-serif" font-weight="400" font-size="8" transform="translate(973.322 625)">44</text><text font-family="Arial,Arial_MSFontService,sans-serif" font-weight="400" font-size="8" transform="translate(948.939 625)">7</text><text font-family="Arial,Arial_MSFontService,sans-serif" font-weight="400" font-size="8" transform="translate(917.783 625)">5.6</text><text font-family="Arial,Arial_MSFontService,sans-serif" font-weight="400" font-size="8" transform="translate(1034.22 644)">0</text><text font-family="Arial,Arial_MSFontService,sans-serif" font-weight="400" font-size="8" transform="translate(1003.69 644)">1.4</text><text font-family="Arial,Arial_MSFontService,sans-serif" font-weight="400" font-size="8" transform="translate(973.322 644)">45</text><text font-family="Arial,Arial_MSFontService,sans-serif" font-weight="400" font-size="8" transform="translate(948.939 644)">8</text><text font-family="Arial,Arial_MSFontService,sans-serif" font-weight="400" font-size="8" transform="translate(917.783 644)">5.8</text><path d="M725 467.285C725 465.471 726.471 464 728.285 464L812.715 464C814.529 464 816 465.471 816 467.285L816 502.715C816 504.529 814.529 506 812.715 506L728.285 506C726.471 506 725 504.529 725 502.715Z" stroke="#FFDC5F" stroke-width="4" stroke-miterlimit="8" fill="none" fill-rule="evenodd"/><text font-family="Arial,Arial_MSFontService,sans-serif" font-weight="400" font-size="16" transform="translate(738.042 491)">Output_3</text><path d="M848 467.285C848 465.471 849.471 464 851.285 464L934.715 464C936.529 464 938 465.471 938 467.285L938 502.715C938 504.529 936.529 506 934.715 506L851.285 506C849.471 506 848 504.529 848 502.715Z" stroke="#FFDC5F" stroke-width="4" stroke-miterlimit="8" fill="none" fill-rule="evenodd"/><text font-family="Arial,Arial_MSFontService,sans-serif" font-weight="400" font-size="16" transform="translate(860.163 491)">Output_4</text><path d="M970 467.285C970 465.471 971.471 464 973.285 464L1057.72 464C1059.53 464 1061 465.471 1061 467.285L1061 502.715C1061 504.529 1059.53 506 1057.72 506L973.285 506C971.471 506 970 504.529 970 502.715Z" stroke="#FFDC5F" stroke-width="4" stroke-miterlimit="8" fill="none" fill-rule="evenodd"/><text font-family="Arial,Arial_MSFontService,sans-serif" font-weight="400" font-size="16" transform="translate(1007.12 491)">…</text><path d="M603 467.285C603 465.471 604.471 464 606.285 464L690.715 464C692.529 464 694 465.471 694 467.285L694 502.715C694 504.529 692.529 506 690.715 506L606.285 506C604.471 506 603 504.529 603 502.715Z" stroke="#FFDC5F" stroke-width="4" stroke-miterlimit="8" fill="none" fill-rule="evenodd"/><text font-family="Arial,Arial_MSFontService,sans-serif" font-weight="400" font-size="16" transform="translate(615.921 491)">Output_2</text><path d="M47 181.536C47 179.031 49.0309 177 51.5362 177L128.464 177C130.969 177 133 179.031 133 181.536L133 230.464C133 232.969 130.969 235 128.464 235L51.5362 235C49.0309 235 47 232.969 47 230.464Z" stroke="#92D050" stroke-width="4" stroke-miterlimit="8" fill="none" fill-rule="evenodd"/><text font-family="Arial,Arial_MSFontService,sans-serif" font-weight="400" font-size="16" transform="translate(73.4561 203)">Prep</text><text font-family="Arial,Arial_MSFontService,sans-serif" font-weight="400" font-size="16" transform="translate(61.9561 222)">weather</text><path d="M47 252.614C47 250.066 49.0659 248 51.6144 248L128.386 248C130.934 248 133 250.066 133 252.614L133 302.386C133 304.934 130.934 307 128.386 307L51.6144 307C49.0659 307 47 304.934 47 302.386Z" stroke="#92D050" stroke-width="4" stroke-miterlimit="8" fill="none" fill-rule="evenodd"/><text font-family="Arial,Arial_MSFontService,sans-serif" font-weight="400" font-size="16" transform="translate(64.5427 274)">Sys_ID</text><text font-family="Arial,Arial_MSFontService,sans-serif" font-weight="400" font-size="16" transform="translate(62.956 293)">building</text><path d="M47 325.614C47 323.066 49.0659 321 51.6144 321L128.386 321C130.934 321 133 323.066 133 325.614L133 375.386C133 377.934 130.934 380 128.386 380L51.6144 380C49.0659 380 47 377.934 47 375.386Z" stroke="#92D050" stroke-width="4" stroke-miterlimit="8" fill="none" fill-rule="evenodd"/><text font-family="Arial,Arial_MSFontService,sans-serif" font-weight="400" font-size="16" transform="translate(82.2893 357)">…</text><path d="M450 247.5 458.903 247.5 458.903 204 473 291 458.903 378 458.903 334.5 450 334.5Z" fill="#BFBFBF" fill-rule="evenodd"/><path d="M0 43.5 8.9033 43.5 8.9033 0 23 87 8.9033 174 8.9033 130.5 0 130.5Z" fill="#BFBFBF" fill-rule="evenodd" transform="matrix(-1 0 0 1 1093 204)"/><path d="M295 243.5 303.903 243.5 303.903 200 318 287 303.903 374 303.903 330.5 295 330.5Z" fill="#BFBFBF" fill-rule="evenodd"/><path d="M151 236.75 159.516 236.75 159.516 193 173 280.5 159.516 368 159.516 324.25 151 324.25Z" fill="#BFBFBF" fill-rule="evenodd"/><text font-family="Consolas,Consolas_MSFontService,sans-serif" font-weight="400" font-size="24" transform="translate(51.4884 480)">FlECs</text><text font-family="Consolas,Consolas_MSFontService,sans-serif" font-weight="400" font-size="24" transform="translate(117.322 480)">-</text><text font-family="Consolas,Consolas_MSFontService,sans-serif" font-weight="400" font-size="24" transform="translate(130.488 480)">Framework</text><text font-family="Consolas,Consolas_MSFontService,sans-serif" font-weight="400" font-size="24" transform="translate(51.4884 508)">├─</text><text fill="#9ACFF1" font-family="Consolas,Consolas_MSFontService,sans-serif" font-weight="400" font-size="24" transform="translate(90.9884 508)">data</text><text font-family="Consolas,Consolas_MSFontService,sans-serif" font-weight="400" font-size="24" transform="translate(51.4884 537)">├─</text><text fill="#EE7551" font-family="Consolas,Consolas_MSFontService,sans-serif" font-weight="400" font-size="24" transform="translate(90.9884 537)">models</text><text font-family="Consolas,Consolas_MSFontService,sans-serif" font-weight="400" font-size="24" transform="translate(51.4884 566)">├─</text><text fill="#FFDC5F" font-family="Consolas,Consolas_MSFontService,sans-serif" font-weight="400" font-size="24" transform="translate(90.9884 566)">output</text><text font-family="Consolas,Consolas_MSFontService,sans-serif" font-weight="400" font-size="24" transform="translate(51.4884 595)">├─</text><text fill="#C0A9D2" font-family="Consolas,Consolas_MSFontService,sans-serif" font-weight="400" font-size="24" transform="translate(90.9884 595)">post</text><text font-family="Consolas,Consolas_MSFontService,sans-serif" font-weight="400" font-size="24" transform="translate(51.4884 624)">├─</text><text fill="#92D050" font-family="Consolas,Consolas_MSFontService,sans-serif" font-weight="400" font-size="24" transform="translate(90.9884 624)">prep</text><text font-family="Consolas,Consolas_MSFontService,sans-serif" font-weight="400" font-size="24" transform="translate(51.4884 652)">├─</text><text fill="#0070C0" font-family="Consolas,Consolas_MSFontService,sans-serif" font-weight="400" font-size="24" transform="translate(90.9884 652)">scenarios</text><text font-family="Consolas,Consolas_MSFontService,sans-serif" font-weight="400" font-size="24" transform="translate(222.655 652)">&lt;</text><text font-family="Consolas,Consolas_MSFontService,sans-serif" font-weight="400" font-size="24" transform="translate(235.822 652)">-</text><text font-family="Consolas,Consolas_MSFontService,sans-serif" font-weight="400" font-size="24" transform="translate(248.988 652)">entry point</text><text font-family="Consolas,Consolas_MSFontService,sans-serif" font-weight="400" font-size="24" transform="translate(51.4884 681)">└─</text><text fill="#D9D9D9" font-family="Consolas,Consolas_MSFontService,sans-serif" font-weight="400" font-size="24" transform="translate(90.9884 681)">util</text></g></svg>